<?xml version="1.0" encoding="UTF-8" standalone="no"?>
<svg
   xmlns:dc="http://purl.org/dc/elements/1.1/"
   xmlns:cc="http://creativecommons.org/ns#"
   xmlns:rdf="http://www.w3.org/1999/02/22-rdf-syntax-ns#"
   xmlns:svg="http://www.w3.org/2000/svg"
   xmlns="http://www.w3.org/2000/svg"
   id="svg4962"
   version="1.1"
   viewBox="0 0 13.388798 12.629237"
   height="12.629237mm"
   width="13.388798mm">
  <defs
     id="defs4956" />
  <metadata
     id="metadata4959">
    <rdf:RDF>
      <cc:Work
         rdf:about="">
        <dc:format>image/svg+xml</dc:format>
        <dc:type
           rdf:resource="http://purl.org/dc/dcmitype/StillImage" />
        <dc:title></dc:title>
      </cc:Work>
    </rdf:RDF>
  </metadata>
  <g
     transform="translate(-77.230184,-131.79364)"
     id="layer1">
    <path
       d="m 84.083285,144.30896 c 0.607376,-0.008 1.193305,-0.10381 1.745192,-0.27724 -1.006991,-0.49013 -1.704241,-1.4776 -1.704241,-2.79158 0,-1.91426 1.479758,-3.08863 3.241344,-3.08863 1.061018,0 2.016789,0.42052 2.613535,1.16828 0.06261,-0.34944 0.09529,-0.70927 0.09529,-1.07672 0,-3.30406 -2.641294,-6.36497 -5.927568,-6.44943 -0.02203,4.35634 -0.04418,8.78369 -0.06357,12.51532 z m 5.896205,-4.98967 c -0.400068,2.23363 -2.022667,4.04318 -4.150643,4.71193 0.460037,0.22391 0.984686,0.34405 1.537102,0.34405 1.77333,0 3.253033,-1.22137 3.253033,-3.13564 0,-0.76892 -0.238866,-1.41832 -0.639492,-1.92034 z m -7.874164,-7.18813 c -2.418351,0.89747 -4.164236,3.42579 -4.164236,6.11138 0,0.24774 0.01444,0.49269 0.04264,0.73385 0.522335,-0.61717 1.275385,-1.00233 2.127886,-1.05663 0.203355,-0.0129 0.338354,-0.0176 0.512025,-0.0176 0.522203,0 1.020193,0.0972 1.466129,0.28164 l 0.01577,-6.04901 z m -4.121581,6.84523 c -0.470275,0.55567 -0.753561,1.29938 -0.753561,2.15947 0,2.00411 1.551417,3.37333 3.393467,3.28278 0.508568,-0.025 0.907979,-0.22953 1.340521,-0.40814 -2.155887,-0.72199 -3.708488,-2.70065 -3.980432,-5.03411 z m 3.980427,5.03411 c 1.28e-4,3e-5 1.28e-4,1e-4 2.57e-4,1.4e-4 -1.03e-4,-1.4e-4 2.1e-5,-1.4e-4 0,-1.4e-4 -1.26e-4,7e-5 -1.26e-4,1e-4 -2.57e-4,1.4e-4 z m -1.340526,-4.43615 c -0.946727,0 -1.438448,0.77462 -1.438448,1.5615 0,0.78689 0.504149,1.58607 1.450873,1.58607 0.946726,0 1.45082,-0.79918 1.45082,-1.58607 0,-0.78688 -0.516514,-1.5615 -1.463245,-1.5615 z m 6.742314,0.17378 c -0.904282,0 -1.374066,0.73986 -1.374066,1.49146 0,0.75162 0.481529,1.515 1.385809,1.515 0.904278,0 1.38577,-0.76338 1.38577,-1.515 0,-0.7516 -0.493226,-1.49146 -1.397513,-1.49146 z"
       style="font-style:normal;font-variant:normal;font-weight:bold;font-stretch:normal;font-size:192px;line-height:1.25;font-family:'Avenir Next LT Pro';-inkscape-font-specification:'Avenir Next LT Pro Bold';letter-spacing:0px;word-spacing:0px;display:inline;fill:#FF6347;fill-opacity:1;stroke:none;stroke-width:0.06116638"
       id="path825-9-3" />
  </g>
</svg>
